<svg xmlns="http://www.w3.org/2000/svg" viewBox="0 0 390.11 127.09"><defs><style>.cls-1{fill:#ed1c24;}.cls-2{fill:#fff;}</style></defs><g id="Layer_2" data-name="Layer 2"><g id="Layer_1-2" data-name="Layer 1"><polygon class="cls-1" points="89.51 29.13 89.51 0 54.41 0 44.75 9.65 35.1 0 0 0 0 29.13 44.76 73.79 89.51 29.13"/><path class="cls-2" d="M28.24,101l-5.49-5v4.79h-2.1V91.52l.29,0,5.41,4.93V91.66h2.11V101Zm40.35-9.11-.06-.23H61v2h4.18l-4.5,7,.06.24h7.73v-2H64.09Zm20.92,23.25H70.39a33.5,33.5,0,0,1-51.3,0H0V102.42H89.51Zm-20.37,0H58.29a23.43,23.43,0,0,1-27.1,0H20.35a32.53,32.53,0,0,0,48.79,0Zm-24.4,3.39a22.33,22.33,0,0,0,11.86-3.39H32.89A22.35,22.35,0,0,0,44.74,118.53Zm43.54-14.87h-87v10.25H88.28ZM29.16,120.47l.63-4-.09-.07-3.48,2.09.71.48.6-.4,1,.71-.14.7Zm-.45-1.88-.6-.4.79-.52Zm3.63,2.28c.21-.42.16-.81-.33-1.36-.32-.38-.46-.53-.35-.74s.24-.21.52-.08a1.67,1.67,0,0,1,.59.62l.52-.59a2,2,0,0,0-.79-.7,1.08,1.08,0,0,0-1.3,1.73c.41.45.44.6.35.77s-.24.24-.51.11a1.85,1.85,0,0,1-.76-.76l-.54.59a2.4,2.4,0,0,0,.94.87A1.16,1.16,0,0,0,32.34,120.87Zm2.84,1.18c.17-.44.1-.82-.43-1.34-.36-.34-.5-.48-.41-.7s.22-.23.51-.12a1.6,1.6,0,0,1,.64.57l.47-.63a2,2,0,0,0-.85-.63A1.08,1.08,0,0,0,34,121c.44.41.48.57.41.74s-.22.26-.5.15a1.79,1.79,0,0,1-.82-.7l-.5.63a2.48,2.48,0,0,0,1,.79A1.15,1.15,0,0,0,35.18,122.05Zm4.45.41a1.78,1.78,0,0,0-1.34-2.27A1.81,1.81,0,0,0,36,121.57a1.77,1.77,0,0,0,1.35,2.26A1.8,1.8,0,0,0,39.63,122.46Zm-.87-.21a1,1,0,1,1-.67-1.33A1,1,0,0,1,38.76,122.25Zm4.55,2.15-.18-.74a1.7,1.7,0,0,1-.93.17,1,1,0,0,1-1-1.19,1,1,0,0,1,1.21-1,1.9,1.9,0,0,1,.84.33l.33-.69a2.38,2.38,0,0,0-1.1-.43,1.89,1.89,0,1,0-.38,3.75A2.19,2.19,0,0,0,43.31,124.4Zm1.75.27,0-3.64h-.84l0,3.64Zm4.27-.28-2-3.51h-.12L45.8,124.7l.86-.07.21-.69,1.25-.11.33.64Zm-1.53-1.18-.72.06.28-.9Zm4.08-2.28-.15-.76-3,.6.16.76,1.07-.21.58,2.81.83-.17-.58-2.81Zm2.24,2.3-1.06-3.49-.81.24,1.06,3.49Zm3.71-3.42a1.78,1.78,0,0,0-2.44-1,1.81,1.81,0,0,0-1,2.47,1.78,1.78,0,0,0,2.44,1A1.81,1.81,0,0,0,57.83,119.81Zm-.83.36a1,1,0,1,1-1.78.76,1,1,0,1,1,1.78-.76Zm5.21-.82-2-3.14-.72.45,1,1.6-2.88-.52-.08.08L59.52,121l.72-.44-1-1.62,2.9.52ZM49.41,81.64a.7.7,0,0,0-.7-.71.72.72,0,1,0,.7.71m2-.8a.71.71,0,1,0-1.42,0,.71.71,0,1,0,1.42,0m2.08-.37a.7.7,0,0,0-.7-.71.71.71,0,0,0-.72.71.71.71,0,1,0,1.42,0m2.14.18a.71.71,0,1,0-1.42,0,.72.72,0,0,0,.7.72.73.73,0,0,0,.72-.72m2,.85a.72.72,0,0,0-1.43,0,.72.72,0,0,0,.71.72.73.73,0,0,0,.72-.72M59.17,83a.71.71,0,1,0-.72.72.72.72,0,0,0,.72-.72m1,1.89a.7.7,0,0,0-.71-.7.7.7,0,0,0-.7.7.71.71,0,0,0,.7.72.73.73,0,0,0,.71-.72M60.47,87a.67.67,0,0,0-.68-.68.69.69,0,0,0,0,1.37.69.69,0,0,0,.69-.69M60.37,89A.68.68,0,1,0,59,89a.68.68,0,1,0,1.36,0M40.09,81.64a.72.72,0,0,0,.72.72.72.72,0,0,0,0-1.43.71.71,0,0,0-.71.71m-2-.8a.71.71,0,1,0,.7-.72.71.71,0,0,0-.7.72M36,80.47a.71.71,0,1,0,1.42,0,.71.71,0,0,0-.72-.71.7.7,0,0,0-.7.71m-2.14.18a.73.73,0,0,0,.72.72.72.72,0,0,0,.7-.72.71.71,0,1,0-1.42,0m-2,.85a.73.73,0,0,0,.72.72.72.72,0,0,0,.71-.72.72.72,0,0,0-1.43,0M30.34,83a.71.71,0,1,0,1.42,0,.71.71,0,1,0-1.42,0m-1,1.89a.71.71,0,1,0,1.42,0,.71.71,0,0,0-1.42,0M29,87a.69.69,0,1,0,1.37,0,.68.68,0,0,0-.69-.68A.67.67,0,0,0,29,87m.1,2.08a.68.68,0,1,0,.67-.68.67.67,0,0,0-.67.68M56,99.29a10.1,10.1,0,0,0,.15,1.55H33.38a9.7,9.7,0,0,0,.16-1.56,7.9,7.9,0,0,0-.19-1.54H56.14A7.4,7.4,0,0,0,56,99.29ZM37.8,99.05a.32.32,0,0,0-.34-.32H35.57a.33.33,0,0,0-.34.32v.47a.33.33,0,0,0,.34.32h1.89a.32.32,0,0,0,.34-.32Zm3.93.26c0-.33-.49-.6-1.1-.6s-1.09.27-1.09.6.49.59,1.09.59S41.73,99.63,41.73,99.31Zm4.3-.26a.32.32,0,0,0-.34-.32H43.8a.33.33,0,0,0-.34.32v.47a.33.33,0,0,0,.34.32h1.89a.32.32,0,0,0,.34-.32Zm3.93.26c0-.33-.49-.6-1.1-.6s-1.09.27-1.09.6.49.59,1.09.59S50,99.63,50,99.31Zm4.31-.26a.33.33,0,0,0-.35-.32H52a.33.33,0,0,0-.34.32v.47a.33.33,0,0,0,.34.32h1.89a.33.33,0,0,0,.35-.32Zm-7.61-20.4V76.39l-1.42.74L45.15,77l.74-1.42H43.62L44.36,77l-.09.09-1.42-.73v2.26l1.41-.73.09.09-.73,1.42h2.27L45.15,78l.09-.09ZM58.22,90.42c-.23.85-.53,1.81-.8,2.69a3.08,3.08,0,0,1-.09.3v0h0c-.28,1-.85,3.06-1,3.53h-.53a4.22,4.22,0,0,1-3.9-2.08,3.66,3.66,0,0,1-3.33,1.79,4.28,4.28,0,0,1-3.84-2.33,4.39,4.39,0,0,1-3.84,2.33,3.66,3.66,0,0,1-3.33-1.79A4.22,4.22,0,0,1,33.68,97h-.53c-.12-.47-.7-2.54-1-3.53h0v0a3.08,3.08,0,0,1-.09-.3c-.27-.88-.57-1.84-.8-2.69-.82-3.06-.41-5.64,1.17-7.24a5.82,5.82,0,0,1,5.74-1.27,15.44,15.44,0,0,1,3.41,1.53,18.05,18.05,0,0,0,1.66.82V83.08h0a1.83,1.83,0,0,1-.39-1.14,1.87,1.87,0,1,1,3.74,0,1.9,1.9,0,0,1-.38,1.13v1.2c.5-.21,1.07-.52,1.65-.83a15.65,15.65,0,0,1,3.41-1.53,5.83,5.83,0,0,1,5.75,1.27C58.63,84.78,59,87.36,58.22,90.42Zm-12-5v1.66a11.14,11.14,0,0,0,1.7-.61,19.29,19.29,0,0,1,2.86-1,5.38,5.38,0,0,1,5.3,1.22A5.29,5.29,0,0,1,57.45,89c.36-2.18,0-4-1.15-5.11a4.82,4.82,0,0,0-4.74-1,14.39,14.39,0,0,0-3.16,1.42A14.34,14.34,0,0,1,46.24,85.39Zm-1.49-1.57a1.92,1.92,0,0,1-.55-.09v5.41h1.09V83.73A1.91,1.91,0,0,1,44.75,83.82ZM32,89a5.26,5.26,0,0,1,1.35-2.39,5.38,5.38,0,0,1,5.3-1.22,19.29,19.29,0,0,1,2.86,1,11.14,11.14,0,0,0,1.7.61V85.39a13,13,0,0,1-2.16-1,14.39,14.39,0,0,0-3.16-1.42,4.82,4.82,0,0,0-4.74,1C32.07,85.05,31.68,86.84,32,89Zm12.13,3.36-.09-.1-1.93,1V90.19l1.93,1,.14-.14-1-1.91h0v-1a9.87,9.87,0,0,1-2.1-.72,19.74,19.74,0,0,0-2.73-1,4.36,4.36,0,0,0-4.29,1c-1.28,1.28-1.62,3.33-1,5.79l.73,2.65.25,0a3.75,3.75,0,0,0,3.05-1.92v0H37c-.13,0-.24-.17-.24-.37s.11-.36.24-.36h.14a1.47,1.47,0,0,0-.56-.46.4.4,0,0,0-.22-.06.47.47,0,0,0-.46.46.48.48,0,0,0,.07.24v0a.84.84,0,0,1-.8-.19,1,1,0,0,1,.48-1.77c.85-.14,1.38.89,1.55,1.25a5.57,5.57,0,0,1-.45-2.09,2.32,2.32,0,0,1,.81-1.85,2.32,2.32,0,0,1,.81,1.85,5.43,5.43,0,0,1-.44,2.09c.17-.36.7-1.39,1.54-1.25A1,1,0,0,1,40,93.13a.86.86,0,0,1-.81.19l0,0a.48.48,0,0,0,.06-.24.46.46,0,0,0-.46-.46.39.39,0,0,0-.21.06,1.4,1.4,0,0,0-.56.46h.13c.13,0,.24.16.24.36s-.11.37-.24.37H38v0a3.05,3.05,0,0,0,2.84,1.56C43,95.42,43.91,93.15,44.17,92.37Zm11.18,3.41.24,0c.23-.83.54-2,.73-2.64.66-2.46.32-4.52-1-5.8a4.34,4.34,0,0,0-4.29-1,19.74,19.74,0,0,0-2.73,1,10.06,10.06,0,0,1-2.1.72v1h0l-1,1.92.14.14,1.93-1v3.09l-1.94-1-.08.08c.25.78,1.2,3.06,3.37,3.06a3.05,3.05,0,0,0,2.84-1.56v0h-.2c-.13,0-.24-.17-.24-.37s.11-.36.24-.36h.13a1.33,1.33,0,0,0-.56-.46.39.39,0,0,0-.21-.06.46.46,0,0,0-.46.46.48.48,0,0,0,.06.24l0,0a.86.86,0,0,1-.81-.19A1,1,0,0,1,50,91.36c.84-.14,1.37.89,1.54,1.25a5.43,5.43,0,0,1-.44-2.09,2.32,2.32,0,0,1,.81-1.85,2.32,2.32,0,0,1,.81,1.85,5.85,5.85,0,0,1-.44,2.09c.16-.36.69-1.39,1.54-1.25a1,1,0,0,1,.48,1.77.84.84,0,0,1-.8.19v0a.48.48,0,0,0,.07-.24.47.47,0,0,0-.46-.46.4.4,0,0,0-.22.06,1.47,1.47,0,0,0-.56.46h.14c.13,0,.24.16.24.36s-.11.37-.24.37H52.3v0A3.75,3.75,0,0,0,55.35,95.78ZM7.89,111.14,6.8,109.35a1.7,1.7,0,0,0,.59-.57A1.46,1.46,0,0,0,7.6,108a1.53,1.53,0,0,0-.12-.6,1.27,1.27,0,0,0-.35-.49,1.91,1.91,0,0,0-.62-.33,3.5,3.5,0,0,0-.93-.12c-.27,0-.52,0-.74,0l-.62,0v4.59H5.29v-1.52l.2,0h.38l.8,1.51Zm-1.64-2.56a1,1,0,0,1-.62.18H5.29v-1.29l.21,0h.21a1,1,0,0,1,.56.15.55.55,0,0,1,.2.46A.64.64,0,0,1,6.25,108.58Zm5.18,2.56v-1H9.57v-.9h1.7v-.94H9.57v-.83h1.86v-1H8.49v4.63Zm4.5-3.65v-1H12.07v1h1.39v3.65h1.08v-3.65Zm4.5-1H19.36v2.67a1.29,1.29,0,0,1-.22.78.81.81,0,0,1-.67.28.83.83,0,0,1-.68-.28,1.29,1.29,0,0,1-.21-.78v-2.67H16.5v2.75a1.75,1.75,0,0,0,1.94,2,2.06,2.06,0,0,0,1.47-.5,1.92,1.92,0,0,0,.52-1.46ZM25,111.14l-1.09-1.79a1.7,1.7,0,0,0,.59-.57,1.49,1.49,0,0,0,.21-.77,1.73,1.73,0,0,0-.11-.6,1.3,1.3,0,0,0-.36-.49,1.91,1.91,0,0,0-.62-.33,3.42,3.42,0,0,0-.92-.12c-.28,0-.52,0-.74,0l-.63,0v4.59H22.4v-1.52l.2,0H23l.79,1.51Zm-1.64-2.56a1,1,0,0,1-.61.18H22.4v-1.29l.21,0h.21a.93.93,0,0,1,.56.15.56.56,0,0,1,.21.46A.65.65,0,0,1,23.36,108.58Zm6.24,2.63v-4.7H28.52v2.4l-2.76-2.49-.14,0v4.7h1.07v-2.42l2.8,2.51Zm3.93-.07v-1H31.67v-.9h1.69v-.94H31.67v-.83h1.86v-1H30.59v4.63Zm4.92-3.27a1.85,1.85,0,0,0-.52-.73,2.4,2.4,0,0,0-.88-.49,3.88,3.88,0,0,0-1.25-.18l-.66,0-.71.06v4.56l.38,0,.34,0h.69a3.84,3.84,0,0,0,1.25-.18,2.47,2.47,0,0,0,.87-.51,2,2,0,0,0,.5-.76,2.67,2.67,0,0,0,.16-1A2.3,2.3,0,0,0,38.45,107.87Zm-1.06,1.5a1,1,0,0,1-.26.45,1.23,1.23,0,0,1-.46.3,1.81,1.81,0,0,1-.65.1h-.39l-.13,0v-2.73l.22,0H36a1.62,1.62,0,0,1,1.14.35,1.28,1.28,0,0,1,.39,1A1.83,1.83,0,0,1,37.39,109.37Zm7,1.77-2.19-4.67H42.1l-2.19,4.67H41l.35-.84H43l.35.84Zm-1.81-1.66H41.7l.46-1.12Zm6.19,1.73v-4.7H47.74v2.4L45,106.42l-.14,0v4.7h1.07v-2.42l2.8,2.51Zm5-3.34a2,2,0,0,0-.52-.73,2.4,2.4,0,0,0-.88-.49,3.88,3.88,0,0,0-1.25-.18l-.66,0-.71.06v4.56l.38,0,.33,0h.7a3.84,3.84,0,0,0,1.25-.18,2.34,2.34,0,0,0,.86-.51,1.89,1.89,0,0,0,.51-.76,2.67,2.67,0,0,0,.16-1A2.49,2.49,0,0,0,53.8,107.87Zm-1.06,1.5a1.11,1.11,0,0,1-.26.45,1.31,1.31,0,0,1-.46.3,1.83,1.83,0,0,1-.66.1H51l-.13,0v-2.73l.22,0h.22a1.63,1.63,0,0,1,1.15.35,1.28,1.28,0,0,1,.39,1A1.83,1.83,0,0,1,52.74,109.37Zm6.11,0a1,1,0,0,0-.19-.36,1.51,1.51,0,0,0-.34-.32,4,4,0,0,0-.55-.28l-.37-.17a1,1,0,0,1-.25-.14.43.43,0,0,1-.15-.15.38.38,0,0,1,0-.19.34.34,0,0,1,.12-.26.63.63,0,0,1,.43-.12.82.82,0,0,1,.26,0l.27.08a2.1,2.1,0,0,1,.26.13,1.26,1.26,0,0,1,.23.13l.27-1a.89.89,0,0,0-.24-.13,2.38,2.38,0,0,0-.32-.12l-.35-.08a2.43,2.43,0,0,0-.38,0,2.27,2.27,0,0,0-.72.11,1.62,1.62,0,0,0-.5.3,1.27,1.27,0,0,0-.31.43,1.22,1.22,0,0,0-.11.5,1.27,1.27,0,0,0,.06.39,1.09,1.09,0,0,0,.19.37,1.51,1.51,0,0,0,.34.32,2.29,2.29,0,0,0,.52.27c.17.08.32.14.42.2a.9.9,0,0,1,.26.17.36.36,0,0,1,.12.16.41.41,0,0,1,0,.16.38.38,0,0,1-.12.29.57.57,0,0,1-.41.12,2,2,0,0,1-.67-.12,3.13,3.13,0,0,1-.63-.33l-.29,1a2.17,2.17,0,0,0,.34.19,2.62,2.62,0,0,0,.39.15l.42.1a2,2,0,0,0,.41,0,2,2,0,0,0,.73-.12,1.53,1.53,0,0,0,.51-.32,1.33,1.33,0,0,0,.31-.47,1.4,1.4,0,0,0,.1-.54A1.84,1.84,0,0,0,58.85,109.36Zm3.73,1.78v-1H60.72v-.9h1.69v-.94H60.72v-.83h1.86v-1H59.64v4.63Zm4.58,0-1.09-1.79a1.67,1.67,0,0,0,.58-.57,1.49,1.49,0,0,0,.21-.77,1.52,1.52,0,0,0-.11-.6,1.27,1.27,0,0,0-.35-.49,1.91,1.91,0,0,0-.62-.33,3.56,3.56,0,0,0-.93-.12c-.27,0-.52,0-.74,0l-.63,0v4.59h1.08v-1.52l.2,0h.38l.79,1.51Zm-1.64-2.56a1,1,0,0,1-.62.18h-.34v-1.29l.2,0H65a.92.92,0,0,1,.55.15.56.56,0,0,1,.21.46A.64.64,0,0,1,65.52,108.58Zm6-2.07H70.35L69.29,109l-1.05-2.5H67l2.22,4.67h.13Zm1.52,4.63v-4.63H72v4.63Zm4.48-1.26a2.41,2.41,0,0,1-.57.25,2.06,2.06,0,0,1-.59.09,1.54,1.54,0,0,1-.58-.1,1.11,1.11,0,0,1-.44-.28,1,1,0,0,1-.28-.43,1.54,1.54,0,0,1-.1-.58,1.59,1.59,0,0,1,.1-.59,1,1,0,0,1,.28-.43,1,1,0,0,1,.44-.28,1.54,1.54,0,0,1,.58-.09,1.87,1.87,0,0,1,.57.08,2.14,2.14,0,0,1,.54.23l.33-.92a3.16,3.16,0,0,0-.68-.29,2.76,2.76,0,0,0-.77-.11,2.82,2.82,0,0,0-1,.18,2.26,2.26,0,0,0-.8.5,2,2,0,0,0-.52.76,2.5,2.5,0,0,0,0,1.91,2.19,2.19,0,0,0,.52.76,2.41,2.41,0,0,0,.8.5,2.82,2.82,0,0,0,1,.18,3,3,0,0,0,.79-.11,2.89,2.89,0,0,0,.71-.32Zm3.93,1.26v-1H79.63v-.9h1.7v-.94h-1.7v-.83h1.86v-1H78.56v4.63Zm3.75-1.78a1.22,1.22,0,0,0-.18-.36,1.83,1.83,0,0,0-.35-.32,4,4,0,0,0-.55-.28l-.37-.17a1.17,1.17,0,0,1-.25-.14.43.43,0,0,1-.15-.15.38.38,0,0,1,0-.19.34.34,0,0,1,.12-.26.63.63,0,0,1,.43-.12.82.82,0,0,1,.26,0l.27.08.27.13a1.71,1.71,0,0,1,.23.13l.27-1a1.17,1.17,0,0,0-.25-.13,2.38,2.38,0,0,0-.32-.12l-.35-.08a2.43,2.43,0,0,0-.38,0,2.16,2.16,0,0,0-.71.11,1.56,1.56,0,0,0-.51.3,1.27,1.27,0,0,0-.31.43,1.21,1.21,0,0,0-.1.5,1.67,1.67,0,0,0,0,.39,1.09,1.09,0,0,0,.19.37,1.75,1.75,0,0,0,.34.32,2.52,2.52,0,0,0,.52.27,4.34,4.34,0,0,1,.42.2.9.9,0,0,1,.26.17.36.36,0,0,1,.12.16.41.41,0,0,1,0,.16.38.38,0,0,1-.12.29.57.57,0,0,1-.41.12,2,2,0,0,1-.67-.12,3.13,3.13,0,0,1-.63-.33l-.29,1a2.17,2.17,0,0,0,.34.19,3.12,3.12,0,0,0,.39.15l.42.1a2,2,0,0,0,.41,0,2,2,0,0,0,.73-.12,1.53,1.53,0,0,0,.51-.32,1.33,1.33,0,0,0,.31-.47,1.4,1.4,0,0,0,.1-.54A1.84,1.84,0,0,0,85.24,109.36Z"/><path class="cls-2" d="M136.77,126h-29V.1h53.41c22.47,0,33.08,10.61,33.08,30.21V57.47c0,14.92-6.11,24.63-18.88,28.41L199.89,126H167.7L145,87.68h-8.27Zm39-10.79h4.68L156.73,77.25h2.7c15.1,0,22.66-9.17,22.66-21.22V31.75c0-12-7.56-21.22-22.66-21.22H120V115.19h4.5V77.25h27.15ZM124.54,14.85h33.81c13,0,19.24,5.93,19.24,18V55c0,12-6.29,18-19.24,18H124.54Zm31.65,47.83c6.12,0,9.17-2.7,9.17-9.53V34.63c0-6.84-3.05-9.53-9.17-9.53H136.77V62.68Z"/><path class="cls-2" d="M292.24,87.86c0,17.26-2.34,26.25-8.45,31.65-4.14,3.95-10.25,6.47-20.86,6.47h-30c-21,0-28.42-6.11-28.42-25.71V84.62h29v8.81c0,6.65.72,7.92,7.91,7.92h14c6.65,0,7.19-4.14,7.19-11.52,0-8.27-.72-10.06-8.45-11.86l-23.74-5.4c-21.76-4.85-25.71-10.07-25.71-36,0-17.27,2.33-24.46,8.45-30C217.25,2.62,223.37.1,234,.1h27.51c21,0,28.41,6.47,28.41,25V39.84H261V32.65c0-6.47-.72-7.91-7.91-7.91H241.53c-5.4,0-7.19,2.87-7.19,9.89,0,8.09.72,10.07,8.45,11.87l23.74,5.39C288.29,56.75,292.24,61.78,292.24,87.86ZM221.75,35.17c0-17.09,3.59-20.68,16.9-20.68h25c6.47,0,9.53,3.59,9.53,9.17v5.39h4.49V22.94c0-6.65-4.85-12.77-13.66-12.77H237.39c-13.48,0-20.14,4.86-20.14,25,0,18.52,3.6,22.48,14.57,25l31.11,7.38c8.63,2,12.23,5.57,12.23,21.22,0,17.08-2.52,22.84-16.91,22.84H231.1c-6.48,0-9.35-3.42-9.35-9v-9h-4.5v9.71c0,6.66,4.68,12.59,13.49,12.59h28.77c14,0,20.14-7,20.14-27.15,0-16.37-3.59-22.66-14.56-25.18L234,56.21C223.73,53.87,221.75,52.25,221.75,35.17Z"/><path class="cls-2" d="M331.48,126h-29V30.31C302.53,10.71,313.14.1,335.62.1H357c22.48,0,33.09,10.61,33.09,30.21V126H361.16V87.68H331.48ZM319.25,77.25h54.13v37.94h4.5V31.75c0-12-7.55-21.22-22.66-21.22h-17.8c-15.11,0-22.66,9.17-22.66,21.22v83.44h4.49Zm0-4.32V32.83c0-12,6.3-18,19.25-18h15.64c12.95,0,19.24,5.93,19.24,18v40.1Zm41.91-10.25v-28c0-6.84-3.06-9.53-9.18-9.53H340.66c-6.12,0-9.18,2.69-9.18,9.53V62.68Z"/></g></g></svg>